<svg width="726" height="1053" viewBox="0 0 726 1053" fill="none" xmlns="http://www.w3.org/2000/svg">
<rect x="206" y="53" width="520" height="700" rx="24" fill="#D9D9D9"/>
<g filter="url(#filter0_f_284_33)">
<path d="M313.191 724.7C269.088 711.393 188.796 675.034 159.94 648.124C126.665 619.956 195.683 588.442 203.872 583.694C212.061 578.945 614.492 379.491 684.684 348.623C754.875 317.755 977.142 382.875 1030.96 412.733C1074.83 437.071 1043.83 454.286 1037.98 459.035C1032.13 463.784 696.905 650.498 576.409 707.485C485.158 750.641 399.761 750.818 313.191 724.7Z" fill="black" fill-opacity="0.2"/>
</g>
<path fill-rule="evenodd" clip-rule="evenodd" d="M631.429 515.284L586.909 494.652L586.901 494.67C586.627 494.537 586.351 494.409 586.072 494.284C559.553 482.39 521.721 509.336 501.572 554.467C481.424 599.599 486.587 645.827 513.106 657.721C513.425 657.864 513.746 658.001 514.068 658.133L557.101 678.104L580.86 626.057C587.167 617.732 592.874 608.136 597.606 597.537C601.972 587.758 605.149 577.928 607.178 568.406L631.429 515.284Z" fill="black"/>
<ellipse cx="52.6414" cy="89.3942" rx="52.6414" ry="89.3942" transform="matrix(0.912151 0.409081 -0.407796 0.91342 582.105 493.318)" fill="black"/>
<g filter="url(#filter1_i_284_33)">
<ellipse cx="39.4829" cy="67.0488" rx="39.4829" ry="67.0488" transform="matrix(0.912151 0.409081 -0.407796 0.91342 586.516 519.16)" fill="url(#paint0_linear_284_33)"/>
</g>
<g filter="url(#filter2_di_284_33)">
<path fill-rule="evenodd" clip-rule="evenodd" d="M594.663 548.195C588.615 551.547 582.622 556.75 577.245 563.408L588.756 583.391C590.606 581.226 592.622 579.498 594.663 578.309L594.663 548.195ZM594.663 616.048C591.764 617.462 588.867 617.757 586.381 616.642C586.115 616.523 585.857 616.389 585.609 616.242L568.854 645.327C569.983 646.158 571.194 646.868 572.487 647.448C579.132 650.428 586.915 649.499 594.663 645.496L594.663 616.048ZM595.907 644.826L595.907 615.372C598.158 614.026 600.375 612.026 602.365 609.51L613.651 629.101C608.196 635.988 602.083 641.371 595.907 644.826ZM595.907 577.652L595.907 547.532C603.605 543.595 611.33 542.697 617.931 545.657C619.775 546.484 621.452 547.577 622.961 548.905L605.97 578.402C605.384 577.886 604.732 577.462 604.016 577.14C601.58 576.048 598.748 576.309 595.907 577.652ZM625.138 609.975C622.133 616.705 618.497 622.786 614.476 628.04L603.181 608.432C604.541 606.554 605.775 604.427 606.813 602.1C607.088 601.486 607.343 600.87 607.578 600.256L627.012 605.475C626.432 606.975 625.807 608.476 625.138 609.975ZM587.914 584.423L576.412 564.456C572.205 569.848 568.402 576.138 565.28 583.13C564.682 584.47 564.119 585.812 563.592 587.153L583.258 592.435C583.363 592.184 583.472 591.933 583.584 591.682C584.798 588.964 586.277 586.518 587.914 584.423ZM627.456 604.304C631.124 594.431 632.864 584.656 632.786 575.936L609.782 589.247C609.765 592.297 609.183 595.663 608.006 599.081L627.456 604.304ZM582.791 593.599C581.324 597.449 580.613 601.271 580.615 604.686L557.645 617.978C557.444 608.916 559.236 598.665 563.142 588.322L582.791 593.599ZM557.693 619.389L580.658 606.1C580.908 610.184 582.245 613.562 584.589 615.519L567.865 644.551C561.658 639.366 558.192 630.31 557.693 619.389ZM632.756 574.514L609.748 587.828C609.557 584.347 608.583 581.367 606.872 579.329L623.895 549.777C629.401 555.239 632.419 564.058 632.756 574.514Z" fill="#4C4C4C"/>
</g>
<path fill-rule="evenodd" clip-rule="evenodd" d="M631.417 514.344L586.897 493.711L586.888 493.73C586.607 493.594 586.323 493.462 586.037 493.334C559.518 481.44 521.687 508.385 501.538 553.517C481.39 598.649 486.554 644.878 513.073 656.771C513.4 656.918 513.728 657.058 514.058 657.193L557.089 677.164L580.892 625.021C587.173 616.716 592.856 607.15 597.572 596.588C601.921 586.846 605.09 577.054 607.12 567.567L631.417 514.344Z" fill="black"/>
<path d="M642.223 616.956C622.089 662.053 584.27 688.969 557.751 677.076C531.232 665.183 526.055 618.984 546.189 573.887C566.322 528.791 605.279 499.446 631.799 511.339C658.318 523.233 662.356 571.86 642.223 616.956Z" fill="black"/>
<g filter="url(#filter3_i_284_33)">
<ellipse cx="37.0104" cy="64.6486" rx="37.0104" ry="64.6486" transform="matrix(0.907942 0.419165 -0.394777 0.918786 586.649 521.641)" fill="url(#paint1_linear_284_33)"/>
</g>
<g filter="url(#filter4_di_284_33)">
<path fill-rule="evenodd" clip-rule="evenodd" d="M619.568 608.102C609.188 632.165 589.813 646.624 576.11 640.593L585.874 618.306C592.481 620.911 601.616 614.115 606.706 602.796L619.568 608.102ZM620.974 604.635C629.584 581.979 626.871 559.61 614.5 552.966L604.74 575.244C610.384 578.564 611.733 588.756 608.086 599.319L620.974 604.635ZM583.322 589.104C587.85 579.784 595.118 573.819 601.145 574.164L611.032 551.597C597.763 548.086 580.309 561.718 570.411 583.778L583.322 589.104ZM581.841 592.539L568.955 587.224C560.346 608.919 562.139 630.589 572.874 638.691L582.765 616.114C578.693 611.576 578.212 602.113 581.841 592.539Z" fill="#474747"/>
</g>
<g filter="url(#filter5_ii_284_33)">
<path fill-rule="evenodd" clip-rule="evenodd" d="M379.729 325.562C377.805 326.726 376.099 327.529 374.606 327.929C358.076 332.35 219.61 408.226 189.421 438.717C160.043 468.389 161.672 486.125 162.429 494.358C162.538 495.547 162.629 496.538 162.606 497.338C162.49 501.328 162.52 509.356 162.558 519.572C162.58 525.588 162.606 532.362 162.606 539.516L162.605 563.823C162.662 565.638 162.654 567.491 162.646 569.383C162.611 577.415 162.573 586.149 167.502 595.718C173.577 607.513 202.911 650.764 345.262 695.444C393.527 710.593 449.594 693.765 485.346 678.961C501.277 673.031 513.08 667.316 518.205 664.74C518.938 664.371 519.412 663.688 519.526 662.885C519.755 662.767 519.967 662.658 520.162 662.559C521.076 650.255 524.038 632.652 528.406 615.107C533.192 596.918 539.47 578.958 546.352 567.2C562.701 539.269 597.497 504.823 624.86 514.26C655.913 524.971 653.528 569.586 652.931 580.239C652.756 583.372 652.392 585.461 652.033 587.524L652.033 587.525C651.518 590.487 651.012 593.396 651.084 599.262C651.087 599.493 651.12 599.712 651.18 599.918C651.195 600.447 651.216 601.008 651.242 601.605L652.071 601.177C652.779 601.69 653.76 601.825 654.646 601.372L898.899 476.533C899.587 476.182 900.077 475.532 900.196 474.768C901.055 469.271 901.038 462.781 901.02 455.488C900.972 436.597 900.911 412.317 916 385.937C929.792 361.826 949.885 345.866 968.126 351.585C986.367 357.304 991.328 376.931 992.323 387.862C993.3 398.597 992.719 408.45 992.382 414.163V414.164C992.247 416.463 992.151 418.092 992.212 418.838C992.424 421.44 1018.69 398.862 1020.38 390.26C1025.52 364.077 1026.59 339.559 1023.89 312.983C1023.43 308.472 1021.72 296.822 1020.48 292.879C1020.37 292.527 1020.32 292.168 1020.35 291.8C1020.98 282.676 1019.38 268.902 1016.84 263.126C1016.61 262.618 1016.4 262.083 1016.17 261.521C1013.5 254.966 1009.33 244.728 977.186 230.368C931.548 209.978 807.276 164.586 802.468 163.525C791.107 161.018 776.556 162.095 764.775 162.967C757.863 163.479 751.905 163.92 748.105 163.525C693.227 157.819 629.611 165.388 545.669 207.688C534.434 212.451 523.327 217.886 512.571 224.089C485.742 239.563 463.131 255.991 444.321 271.114C422.299 287.918 405.323 303.028 393.141 313.87L393.14 313.87C387.732 318.684 383.269 322.656 379.729 325.562Z" fill="url(#paint2_linear_284_33)"/>
</g>
<g filter="url(#filter6_ddi_284_33)">
<path d="M600.09 420.154C630.852 407.432 648.034 365.439 695.172 316.409C695.785 315.771 695.571 314.702 694.749 314.373L503.915 237.803C503.729 237.729 503.54 237.699 503.343 237.736C500.856 238.213 481.749 243.262 426.145 292.109C399.005 315.951 393.572 322.162 379.55 331.603C377.332 333.096 377.718 336.384 385.865 343.092C411.837 364.478 554.956 438.818 600.09 420.154Z" fill="url(#paint3_linear_284_33)"/>
</g>
<g filter="url(#filter7_di_284_33)">
<path d="M815.343 259.558C855.463 246.943 861.125 248.116 891.934 248.116C911.023 248.116 942.801 247.054 946.102 255.626C949.403 264.198 912.769 291.121 897.606 299.504C890.195 303.601 634.526 431.605 642.656 416.476C652.672 397.838 698.773 344.596 714.517 322.855C740.768 286.608 775.224 272.172 815.343 259.558Z" fill="url(#paint4_linear_284_33)"/>
</g>
<g filter="url(#filter8_f_284_33)">
<path d="M522.742 512.5C587.383 482.48 623.705 444.797 662.647 410.351C546.68 444.704 303.952 519.878 307.755 524.77C312.509 530.885 329.942 538.14 387.869 542.041C444.9 545.883 515.341 515.937 522.742 512.5Z" fill="url(#paint5_linear_284_33)" fill-opacity="0.21"/>
</g>
<path d="M474.192 391.918L621.523 284.684C638.397 289.248 676.795 306.423 684.113 309.169C693.592 312.727 695.168 314.71 695.168 314.71C695.168 317.569 693.707 318.82 689.105 323.288C682.508 329.694 679.715 332.643 663.37 353.492C639.832 383.518 621.922 411.455 604.749 418.158C591.087 423.491 569.779 428.156 539.456 418.158C512.352 409.222 495.668 399.125 474.192 391.918Z" fill="#C4C4C4" fill-opacity="0.2"/>
<g filter="url(#filter9_dii_284_33)">
<path d="M182.301 488.46C174.51 477.949 176.733 469.554 177.868 456.291C177.885 456.098 177.933 455.885 177.994 455.701C181.643 444.779 166.789 466.5 165.246 481.497C164.74 486.424 165.057 488.919 165.519 493.467C165.731 495.548 170.015 508.25 169.379 510.993C168.743 513.735 170.139 532.636 170.043 535.492C169.947 538.349 181.885 559.603 213.249 580.102C239.303 597.131 276.712 608.308 280.547 608.859C284.382 609.41 288.141 596.556 290.925 595.845C298.211 593.987 319.732 601.886 327.767 603.904C337.141 606.258 359.016 611.688 382.923 608.619C412.494 604.823 417.019 601.465 444.203 586.674C463.14 576.37 476.306 555.867 480.383 545.657C481.033 544.029 479.56 542.58 477.891 543.115C460.488 548.691 419.594 564.035 373.062 568.802C307.803 575.488 256.259 544.504 248.875 540.05C217.834 521.327 201.53 514.404 182.301 488.46Z" fill="#211F1F"/>
</g>
<g filter="url(#filter10_f_284_33)">
<path d="M649.19 507.416L902.044 388.029C886.879 416.723 889.662 448.928 890.258 462.378L669.56 575.213C669.56 536.954 658.251 511.152 649.19 507.416Z" fill="url(#paint6_linear_284_33)"/>
</g>
<defs>
<filter id="filter0_f_284_33" x="133.575" y="323.159" width="937.85" height="436.681" filterUnits="userSpaceOnUse" color-interpolation-filters="sRGB">
<feFlood flood-opacity="0" result="BackgroundImageFix"/>
<feBlend mode="normal" in="SourceGraphic" in2="BackgroundImageFix" result="shape"/>
<feGaussianBlur stdDeviation="8.67815" result="effect1_foregroundBlur_284_33"/>
</filter>
<filter id="filter1_i_284_33" x="549.968" y="533.202" width="90.4399" height="126.707" filterUnits="userSpaceOnUse" color-interpolation-filters="sRGB">
<feFlood flood-opacity="0" result="BackgroundImageFix"/>
<feBlend mode="normal" in="SourceGraphic" in2="BackgroundImageFix" result="shape"/>
<feColorMatrix in="SourceAlpha" type="matrix" values="0 0 0 0 0 0 0 0 0 0 0 0 0 0 0 0 0 0 127 0" result="hardAlpha"/>
<feMorphology radius="0.622509" operator="erode" in="SourceAlpha" result="effect1_innerShadow_284_33"/>
<feOffset/>
<feGaussianBlur stdDeviation="0.311254"/>
<feComposite in2="hardAlpha" operator="arithmetic" k2="-1" k3="1"/>
<feColorMatrix type="matrix" values="0 0 0 0 0 0 0 0 0 0 0 0 0 0 0 0 0 0 0.25 0"/>
<feBlend mode="normal" in2="shape" result="effect1_innerShadow_284_33"/>
</filter>
<filter id="filter2_di_284_33" x="555.762" y="543.78" width="77.3992" height="106.666" filterUnits="userSpaceOnUse" color-interpolation-filters="sRGB">
<feFlood flood-opacity="0" result="BackgroundImageFix"/>
<feColorMatrix in="SourceAlpha" type="matrix" values="0 0 0 0 0 0 0 0 0 0 0 0 0 0 0 0 0 0 127 0" result="hardAlpha"/>
<feOffset dy="0.249004"/>
<feGaussianBlur stdDeviation="0.186753"/>
<feColorMatrix type="matrix" values="0 0 0 0 1 0 0 0 0 1 0 0 0 0 1 0 0 0 0.41 0"/>
<feBlend mode="normal" in2="BackgroundImageFix" result="effect1_dropShadow_284_33"/>
<feBlend mode="normal" in="SourceGraphic" in2="effect1_dropShadow_284_33" result="shape"/>
<feColorMatrix in="SourceAlpha" type="matrix" values="0 0 0 0 0 0 0 0 0 0 0 0 0 0 0 0 0 0 127 0" result="hardAlpha"/>
<feOffset dx="-1.86753" dy="1.24502"/>
<feGaussianBlur stdDeviation="0.933763"/>
<feComposite in2="hardAlpha" operator="arithmetic" k2="-1" k3="1"/>
<feColorMatrix type="matrix" values="0 0 0 0 0 0 0 0 0 0 0 0 0 0 0 0 0 0 0.25 0"/>
<feBlend mode="normal" in2="shape" result="effect2_innerShadow_284_33"/>
</filter>
<filter id="filter3_i_284_33" x="552.532" y="535.147" width="84.3975" height="122.812" filterUnits="userSpaceOnUse" color-interpolation-filters="sRGB">
<feFlood flood-opacity="0" result="BackgroundImageFix"/>
<feBlend mode="normal" in="SourceGraphic" in2="BackgroundImageFix" result="shape"/>
<feColorMatrix in="SourceAlpha" type="matrix" values="0 0 0 0 0 0 0 0 0 0 0 0 0 0 0 0 0 0 127 0" result="hardAlpha"/>
<feMorphology radius="0.45706" operator="erode" in="SourceAlpha" result="effect1_innerShadow_284_33"/>
<feOffset/>
<feGaussianBlur stdDeviation="0.22853"/>
<feComposite in2="hardAlpha" operator="arithmetic" k2="-1" k3="1"/>
<feColorMatrix type="matrix" values="0 0 0 0 0 0 0 0 0 0 0 0 0 0 0 0 0 0 0.25 0"/>
<feBlend mode="normal" in2="shape" result="effect1_innerShadow_284_33"/>
</filter>
<filter id="filter4_di_284_33" x="561.635" y="550.923" width="64.7176" height="92.2826" filterUnits="userSpaceOnUse" color-interpolation-filters="sRGB">
<feFlood flood-opacity="0" result="BackgroundImageFix"/>
<feColorMatrix in="SourceAlpha" type="matrix" values="0 0 0 0 0 0 0 0 0 0 0 0 0 0 0 0 0 0 127 0" result="hardAlpha"/>
<feOffset dy="0.249003"/>
<feGaussianBlur stdDeviation="0.186753"/>
<feColorMatrix type="matrix" values="0 0 0 0 1 0 0 0 0 1 0 0 0 0 1 0 0 0 0.41 0"/>
<feBlend mode="normal" in2="BackgroundImageFix" result="effect1_dropShadow_284_33"/>
<feBlend mode="normal" in="SourceGraphic" in2="effect1_dropShadow_284_33" result="shape"/>
<feColorMatrix in="SourceAlpha" type="matrix" values="0 0 0 0 0 0 0 0 0 0 0 0 0 0 0 0 0 0 127 0" result="hardAlpha"/>
<feOffset dx="-1.86753" dy="1.24502"/>
<feGaussianBlur stdDeviation="0.933763"/>
<feComposite in2="hardAlpha" operator="arithmetic" k2="-1" k3="1"/>
<feColorMatrix type="matrix" values="0 0 0 0 0 0 0 0 0 0 0 0 0 0 0 0 0 0 0.25 0"/>
<feBlend mode="normal" in2="shape" result="effect2_innerShadow_284_33"/>
</filter>
<filter id="filter5_ii_284_33" x="162.121" y="156.876" width="866.937" height="544.519" filterUnits="userSpaceOnUse" color-interpolation-filters="sRGB">
<feFlood flood-opacity="0" result="BackgroundImageFix"/>
<feBlend mode="normal" in="SourceGraphic" in2="BackgroundImageFix" result="shape"/>
<feColorMatrix in="SourceAlpha" type="matrix" values="0 0 0 0 0 0 0 0 0 0 0 0 0 0 0 0 0 0 127 0" result="hardAlpha"/>
<feOffset dx="3.73505" dy="-4.98007"/>
<feGaussianBlur stdDeviation="14.9402"/>
<feComposite in2="hardAlpha" operator="arithmetic" k2="-1" k3="1"/>
<feColorMatrix type="matrix" values="0 0 0 0 0 0 0 0 0 0 0 0 0 0 0 0 0 0 0.07 0"/>
<feBlend mode="normal" in2="shape" result="effect1_innerShadow_284_33"/>
<feColorMatrix in="SourceAlpha" type="matrix" values="0 0 0 0 0 0 0 0 0 0 0 0 0 0 0 0 0 0 127 0" result="hardAlpha"/>
<feOffset dy="-0.622509"/>
<feGaussianBlur stdDeviation="1.24502"/>
<feComposite in2="hardAlpha" operator="arithmetic" k2="-1" k3="1"/>
<feColorMatrix type="matrix" values="0 0 0 0 0 0 0 0 0 0 0 0 0 0 0 0 0 0 0.25 0"/>
<feBlend mode="normal" in2="effect1_innerShadow_284_33" result="effect2_innerShadow_284_33"/>
</filter>
<filter id="filter6_ddi_284_33" x="375.9" y="235.853" width="320.87" height="189.146" filterUnits="userSpaceOnUse" color-interpolation-filters="sRGB">
<feFlood flood-opacity="0" result="BackgroundImageFix"/>
<feColorMatrix in="SourceAlpha" type="matrix" values="0 0 0 0 0 0 0 0 0 0 0 0 0 0 0 0 0 0 127 0" result="hardAlpha"/>
<feOffset dx="-1.24502" dy="0.622509"/>
<feGaussianBlur stdDeviation="0.622509"/>
<feColorMatrix type="matrix" values="0 0 0 0 1 0 0 0 0 1 0 0 0 0 1 0 0 0 0.28 0"/>
<feBlend mode="normal" in2="BackgroundImageFix" result="effect1_dropShadow_284_33"/>
<feColorMatrix in="SourceAlpha" type="matrix" values="0 0 0 0 0 0 0 0 0 0 0 0 0 0 0 0 0 0 127 0" result="hardAlpha"/>
<feOffset dy="-0.622509"/>
<feGaussianBlur stdDeviation="0.622509"/>
<feColorMatrix type="matrix" values="0 0 0 0 1 0 0 0 0 1 0 0 0 0 1 0 0 0 0.56 0"/>
<feBlend mode="normal" in2="effect1_dropShadow_284_33" result="effect2_dropShadow_284_33"/>
<feBlend mode="normal" in="SourceGraphic" in2="effect2_dropShadow_284_33" result="shape"/>
<feColorMatrix in="SourceAlpha" type="matrix" values="0 0 0 0 0 0 0 0 0 0 0 0 0 0 0 0 0 0 127 0" result="hardAlpha"/>
<feOffset dx="-0.622509" dy="1.86753"/>
<feGaussianBlur stdDeviation="0.933763"/>
<feComposite in2="hardAlpha" operator="arithmetic" k2="-1" k3="1"/>
<feColorMatrix type="matrix" values="0 0 0 0 0 0 0 0 0 0 0 0 0 0 0 0 0 0 0.75 0"/>
<feBlend mode="normal" in2="shape" result="effect3_innerShadow_284_33"/>
</filter>
<filter id="filter7_di_284_33" x="639.976" y="248.074" width="306.979" height="172.134" filterUnits="userSpaceOnUse" color-interpolation-filters="sRGB">
<feFlood flood-opacity="0" result="BackgroundImageFix"/>
<feColorMatrix in="SourceAlpha" type="matrix" values="0 0 0 0 0 0 0 0 0 0 0 0 0 0 0 0 0 0 127 0" result="hardAlpha"/>
<feOffset dy="0.643755"/>
<feGaussianBlur stdDeviation="0.321877"/>
<feColorMatrix type="matrix" values="0 0 0 0 0.925374 0 0 0 0 0.925374 0 0 0 0 0.925374 0 0 0 0.37 0"/>
<feBlend mode="normal" in2="BackgroundImageFix" result="effect1_dropShadow_284_33"/>
<feBlend mode="normal" in="SourceGraphic" in2="effect1_dropShadow_284_33" result="shape"/>
<feColorMatrix in="SourceAlpha" type="matrix" values="0 0 0 0 0 0 0 0 0 0 0 0 0 0 0 0 0 0 127 0" result="hardAlpha"/>
<feOffset dx="-2.49003" dy="3.11254"/>
<feGaussianBlur stdDeviation="1.24502"/>
<feComposite in2="hardAlpha" operator="arithmetic" k2="-1" k3="1"/>
<feColorMatrix type="matrix" values="0 0 0 0 0 0 0 0 0 0 0 0 0 0 0 0 0 0 0.8 0"/>
<feBlend mode="normal" in2="shape" result="effect2_innerShadow_284_33"/>
</filter>
<filter id="filter8_f_284_33" x="290.281" y="392.921" width="389.797" height="166.89" filterUnits="userSpaceOnUse" color-interpolation-filters="sRGB">
<feFlood flood-opacity="0" result="BackgroundImageFix"/>
<feBlend mode="normal" in="SourceGraphic" in2="BackgroundImageFix" result="shape"/>
<feGaussianBlur stdDeviation="8.71512" result="effect1_foregroundBlur_284_33"/>
</filter>
<filter id="filter9_dii_284_33" x="161.496" y="449.83" width="322.536" height="163.779" filterUnits="userSpaceOnUse" color-interpolation-filters="sRGB">
<feFlood flood-opacity="0" result="BackgroundImageFix"/>
<feColorMatrix in="SourceAlpha" type="matrix" values="0 0 0 0 0 0 0 0 0 0 0 0 0 0 0 0 0 0 127 0" result="hardAlpha"/>
<feOffset dy="0.581988"/>
<feGaussianBlur stdDeviation="1.74596"/>
<feColorMatrix type="matrix" values="0 0 0 0 0 0 0 0 0 0 0 0 0 0 0 0 0 0 0.85 0"/>
<feBlend mode="normal" in2="BackgroundImageFix" result="effect1_dropShadow_284_33"/>
<feBlend mode="normal" in="SourceGraphic" in2="effect1_dropShadow_284_33" result="shape"/>
<feColorMatrix in="SourceAlpha" type="matrix" values="0 0 0 0 0 0 0 0 0 0 0 0 0 0 0 0 0 0 127 0" result="hardAlpha"/>
<feOffset dy="0.581988"/>
<feGaussianBlur stdDeviation="0.581988"/>
<feComposite in2="hardAlpha" operator="arithmetic" k2="-1" k3="1"/>
<feColorMatrix type="matrix" values="0 0 0 0 0 0 0 0 0 0 0 0 0 0 0 0 0 0 0.25 0"/>
<feBlend mode="normal" in2="shape" result="effect2_innerShadow_284_33"/>
<feColorMatrix in="SourceAlpha" type="matrix" values="0 0 0 0 0 0 0 0 0 0 0 0 0 0 0 0 0 0 127 0" result="hardAlpha"/>
<feOffset dy="-0.581988"/>
<feGaussianBlur stdDeviation="0.581988"/>
<feComposite in2="hardAlpha" operator="arithmetic" k2="-1" k3="1"/>
<feColorMatrix type="matrix" values="0 0 0 0 0 0 0 0 0 0 0 0 0 0 0 0 0 0 0.25 0"/>
<feBlend mode="normal" in2="effect2_innerShadow_284_33" result="effect3_innerShadow_284_33"/>
</filter>
<filter id="filter10_f_284_33" x="646.102" y="384.942" width="259.029" height="193.359" filterUnits="userSpaceOnUse" color-interpolation-filters="sRGB">
<feFlood flood-opacity="0" result="BackgroundImageFix"/>
<feBlend mode="normal" in="SourceGraphic" in2="BackgroundImageFix" result="shape"/>
<feGaussianBlur stdDeviation="1.54375" result="effect1_foregroundBlur_284_33"/>
</filter>
<linearGradient id="paint0_linear_284_33" x1="93.1316" y1="102.281" x2="97.7659" y2="33.3279" gradientUnits="userSpaceOnUse">
<stop stop-color="#3F3F3F"/>
<stop offset="1" stop-color="#5C5C5C"/>
</linearGradient>
<linearGradient id="paint1_linear_284_33" x1="87.092" y1="89.7592" x2="60.9948" y2="-30.0692" gradientUnits="userSpaceOnUse">
<stop stop-color="#3F3F3F"/>
<stop offset="1" stop-color="#777676"/>
</linearGradient>
<linearGradient id="paint2_linear_284_33" x1="502.77" y1="677.658" x2="235.161" y2="286.716" gradientUnits="userSpaceOnUse">
<stop stop-color="#525252"/>
<stop offset="0.25" stop-color="#939393"/>
<stop offset="1" stop-color="#EAEAEA"/>
</linearGradient>
<linearGradient id="paint3_linear_284_33" x1="501.757" y1="74.3661" x2="726.95" y2="287.627" gradientUnits="userSpaceOnUse">
<stop stop-color="#E8EAE9"/>
<stop offset="0.498386" stop-color="#707072"/>
<stop offset="1" stop-color="#2F3032"/>
</linearGradient>
<linearGradient id="paint4_linear_284_33" x1="871.813" y1="788.056" x2="656.796" y2="394.729" gradientUnits="userSpaceOnUse">
<stop stop-color="#E8EAE9"/>
<stop offset="0.498386" stop-color="#707072"/>
<stop offset="1" stop-color="#2F3032"/>
</linearGradient>
<linearGradient id="paint5_linear_284_33" x1="496.908" y1="550.031" x2="468.981" y2="468.321" gradientUnits="userSpaceOnUse">
<stop stop-color="#ECEAEA"/>
<stop offset="1" stop-color="white" stop-opacity="0"/>
</linearGradient>
<linearGradient id="paint6_linear_284_33" x1="724.64" y1="432.985" x2="794.397" y2="576.66" gradientUnits="userSpaceOnUse">
<stop stop-color="#343434" stop-opacity="0.66"/>
<stop offset="1" stop-color="#1A1A1A"/>
</linearGradient>
</defs>
</svg>
