<svg width="32" height="32" viewBox="0 0 32 32" fill="none" xmlns="http://www.w3.org/2000/svg">
<path d="M0.677587 15.8085C0.676843 18.4971 1.37935 21.1224 2.71517 23.4363L0.549835 31.3423L8.64063 29.2208C10.8784 30.4391 13.3857 31.0774 15.9336 31.0776H15.9403C24.3515 31.0776 31.1984 24.2332 31.202 15.8205C31.2036 11.744 29.6175 7.9107 26.7358 5.02673C23.8545 2.14301 20.0226 0.554046 15.9397 0.552185C7.52757 0.552185 0.681184 7.39622 0.677711 15.8085" fill="url(#paint0_linear_51_405)"/>
<path d="M0.132713 15.8035C0.131845 18.5889 0.859535 21.308 2.24298 23.7048L0 31.8942L8.3809 29.6967C10.6901 30.9558 13.29 31.6196 15.9356 31.6206H15.9424C24.6554 31.6206 31.7482 24.53 31.7519 15.8162C31.7534 11.5932 30.1103 7.62208 27.1256 4.63479C24.1405 1.64788 20.1715 0.00173643 15.9424 0C7.22803 0 0.136186 7.08961 0.132713 15.8035ZM5.12385 23.292L4.81091 22.7953C3.49544 20.7036 2.80112 18.2865 2.80211 15.8045C2.80484 8.56174 8.69929 2.66915 15.9474 2.66915C19.4575 2.67064 22.7562 4.03895 25.2373 6.52155C27.7183 9.0044 29.0835 12.3049 29.0827 15.8152C29.0794 23.058 23.1849 28.9513 15.9424 28.9513H15.9372C13.579 28.9501 11.2662 28.3168 9.24924 27.12L8.76924 26.8353L3.79585 28.1393L5.12385 23.292Z" fill="url(#paint1_linear_51_405)"/>
<path d="M11.9911 9.19668C11.6951 8.53894 11.3837 8.52567 11.1023 8.51413C10.8718 8.50421 10.6084 8.50496 10.3452 8.50496C10.0817 8.50496 9.65371 8.60406 9.29191 8.9991C8.92974 9.39451 7.90921 10.35 7.90921 12.2935C7.90921 14.2369 9.32478 16.1153 9.52211 16.3791C9.71969 16.6424 12.2549 20.7582 16.27 22.3416C19.6069 23.6575 20.286 23.3957 21.0102 23.3298C21.7346 23.264 23.3475 22.3745 23.6765 21.4521C24.0058 20.5298 24.0058 19.7392 23.9071 19.574C23.8084 19.4094 23.5449 19.3105 23.1499 19.1131C22.7549 18.9156 20.8127 17.9598 20.4506 17.828C20.0884 17.6963 19.8251 17.6305 19.5617 18.0261C19.2982 18.421 18.5418 19.3105 18.3112 19.574C18.0809 19.838 17.8503 19.8709 17.4554 19.6733C17.0601 19.4751 15.7879 19.0585 14.2786 17.7129C13.1042 16.6658 12.3114 15.3728 12.081 14.9773C11.8505 14.5824 12.0563 14.3683 12.2544 14.1714C12.4319 13.9944 12.6496 13.7102 12.8473 13.4796C13.0442 13.2489 13.11 13.0843 13.2417 12.8209C13.3735 12.5572 13.3075 12.3265 13.2089 12.1289C13.11 11.9313 12.3423 9.9777 11.9911 9.19668Z" fill="white"/>
<defs>
<linearGradient id="paint0_linear_51_405" x1="1533.16" y1="3079.56" x2="1533.16" y2="0.552185" gradientUnits="userSpaceOnUse">
<stop stop-color="#1FAF38"/>
<stop offset="1" stop-color="#60D669"/>
</linearGradient>
<linearGradient id="paint1_linear_51_405" x1="1587.6" y1="3189.42" x2="1587.6" y2="0" gradientUnits="userSpaceOnUse">
<stop stop-color="#F9F9F9"/>
<stop offset="1" stop-color="white"/>
</linearGradient>
</defs>
</svg>
